<?xml version="1.0" encoding="UTF-8" standalone="no"?>
<svg
   aria-hidden="true"
   focusable="false"
   data-prefix="fas"
   data-icon="download"
   role="img"
   viewBox="0 0 512 512"
   class="svg-inline--fa fa-download fa-w-16 fa-9x"
   version="1.1"
   id="svg4"
   sodipodi:docname="download.svg"
   inkscape:version="1.1 (c4e8f9e, 2021-05-24)"
   xmlns:inkscape="http://www.inkscape.org/namespaces/inkscape"
   xmlns:sodipodi="http://sodipodi.sourceforge.net/DTD/sodipodi-0.dtd"
   xmlns="http://www.w3.org/2000/svg"
   xmlns:svg="http://www.w3.org/2000/svg">
  <defs
     id="defs8" />
  <sodipodi:namedview
     id="namedview6"
     pagecolor="#ffffff"
     bordercolor="#999999"
     borderopacity="1"
     inkscape:pageshadow="0"
     inkscape:pageopacity="0"
     inkscape:pagecheckerboard="0"
     showgrid="false"
     inkscape:zoom="1.4707031"
     inkscape:cx="255.66003"
     inkscape:cy="256"
     inkscape:current-layer="svg4" />
  <path
     fill="#c0c0c0"
     d="m 228.65625,81 h 54.6875 c 9.0918,0 16.40625,7.314453 16.40625,16.40625 V 212.25 h 59.95117 c 12.16797,0 18.25195,14.69727 9.63867,23.31055 L 265.36523,339.60352 c -5.12695,5.12695 -13.53515,5.12695 -18.66211,0 L 142.5918,235.56055 C 133.97852,226.94727 140.0625,212.25 152.23047,212.25 H 212.25 V 97.40625 C 212.25,88.314453 219.56445,81 228.65625,81 Z M 431,338.03125 v 76.5625 C 431,423.68555 423.68555,431 414.59375,431 H 97.40625 C 88.314453,431 81,423.68555 81,414.59375 v -76.5625 c 0,-9.0918 7.314453,-16.40625 16.40625,-16.40625 h 100.2832 l 33.4961,33.49609 c 13.74023,13.74024 35.88867,13.74024 49.6289,0 l 33.4961,-33.49609 h 100.2832 c 9.0918,0 16.40625,7.31445 16.40625,16.40625 z m -84.76563,60.15625 c 0,-7.51953 -6.15234,-13.67188 -13.67187,-13.67188 -7.51953,0 -13.67188,6.15235 -13.67188,13.67188 0,7.51953 6.15235,13.67187 13.67188,13.67187 7.51953,0 13.67187,-6.15234 13.67187,-13.67187 z m 43.75,0 c 0,-7.51953 -6.15234,-13.67188 -13.67187,-13.67188 -7.51953,0 -13.67188,6.15235 -13.67188,13.67188 0,7.51953 6.15235,13.67187 13.67188,13.67187 7.51953,0 13.67187,-6.15234 13.67187,-13.67187 z"
     class=""
     id="path2"
     style="stroke-width:0.683594" />
</svg>
