<?xml version="1.0" encoding="iso-8859-1"?>
<!-- Generator: Adobe Illustrator 19.0.0, SVG Export Plug-In . SVG Version: 6.00 Build 0)  -->
<svg version="1.1" id="Layer_1" xmlns="http://www.w3.org/2000/svg" xmlns:xlink="http://www.w3.org/1999/xlink" x="0px" y="0px"
	 viewBox="0 0 511.986 511.986" style="enable-background:new 0 0 511.986 511.986;" xml:space="preserve">
<polygon style="fill:#D94452;" points="300.21,302.241 277.587,324.866 187.128,234.391 209.752,211.767 262.524,219.305 
	292.68,249.461 "/>
<g>
	<path style="fill:#EC5564;" d="M217.306,264.522l7.539-7.539c4.164-4.163,4.164-10.921,0-15.085
		c-4.164-4.156-10.914-4.156-15.078,0l-7.539,7.539c-0.008,0.008-0.016,0.023-0.023,0.023l15.078,15.084
		C217.29,264.538,217.298,264.53,217.306,264.522z"/>
	<path style="fill:#EC5564;" d="M239.931,287.147l7.531-7.547c4.164-4.172,4.164-10.914,0-15.078s-10.906-4.164-15.078,0
		l-7.539,7.531c-0.008,0-0.016,0.016-0.023,0.031l15.085,15.078C239.907,287.163,239.923,287.147,239.931,287.147z"/>
	<path style="fill:#EC5564;" d="M270.087,287.147L270.087,287.147c-4.164-4.172-10.922-4.172-15.086,0l-7.539,7.531
		c-0.008,0-0.016,0.016-0.023,0.031l15.086,15.062c0.008,0,0.016,0,0.016,0l7.547-7.547
		C274.243,298.054,274.243,291.304,270.087,287.147z"/>
</g>
<polygon style="fill:#E6E9ED;" points="247.438,294.71 98.075,444.065 82.997,474.22 30.218,511.923 0.062,481.766 37.764,428.987 
	67.92,413.909 217.283,264.546 "/>
<path style="fill:#EC5564;" d="M508.799,78.583c4.156,4.164,4.156,10.906,0,15.078L322.835,279.616
	c-4.172,4.172-10.922,4.172-15.078,0l-75.388-75.388c-4.172-4.164-4.172-10.914,0-15.078L418.332,3.187
	c4.156-4.164,10.906-4.164,15.062,0L508.799,78.583z"/>
<g>
	<path style="fill:#D94452;" d="M300.21,211.767L300.21,211.767c-4.155-4.156-4.155-10.914,0-15.078L433.394,63.497
		c4.172-4.164,10.922-4.164,15.093,0l0,0c4.156,4.164,4.156,10.921,0,15.085L315.288,211.767
		C311.132,215.931,304.366,215.931,300.21,211.767z"/>
	<path style="fill:#D94452;" d="M270.063,166.534L403.238,33.342c4.172-4.164,4.172-10.906,0-15.078l-148.253,148.27
		C259.149,170.698,265.899,170.698,270.063,166.534z"/>
	<path style="fill:#D94452;" d="M478.642,108.738L345.444,241.922c-4.156,4.164-4.156,10.914,0,15.084L493.72,108.737
		C489.549,104.574,482.799,104.574,478.642,108.738z"/>
</g>
<polygon style="fill:#CCD1D9;" points="37.764,428.987 0.062,481.766 30.218,511.923 82.997,474.22 97.95,444.315 67.67,414.034 "/>
<polygon style="fill:#424953;" points="47.819,499.36 12.632,464.175 0.062,481.766 30.218,511.923 "/>
<g>
	<path style="fill:#F6BB42;" d="M0,104.387c0,0,7.992,92.537,94.06,86.255c95.732-6.992,8.68-56.107,8.68-56.107l-42.42,0.008
		L0,104.387z"/>
	<path style="fill:#F6BB42;" d="M66.561,28.991l72.38,48.256l3.016,27.14L74.107,202.4l82.927,7.531
		c0,0,220.751,250.916,245.735,275.898c24.984,25,65.498,25,90.467,0c25-24.982,25-65.482,0-90.467
		c-8.188-8.203-275.891-245.742-275.891-245.742s19.297-57.53-5.812-94.919C152.16-33.742,66.561,28.991,66.561,28.991z
		 M464.284,424.315c8.327,8.328,8.327,21.828,0,30.172c-8.328,8.312-21.827,8.312-30.155,0c-8.328-8.344-8.328-21.844,0-30.172
		S455.956,415.987,464.284,424.315z"/>
</g>
<path style="fill:#FFCE54;" d="M45.241,28.991l72.373,48.256l3.016,27.14L52.78,202.4l82.935,7.531
	c0,0,220.745,250.916,245.728,275.898c24.983,25,65.498,25,90.481,0c24.969-24.982,24.969-65.482,0-90.467
	c-8.202-8.203-275.897-245.742-275.897-245.742s19.28-57.53-5.82-94.919C130.84-33.742,45.241,28.991,45.241,28.991z
	 M442.957,424.315c8.343,8.328,8.343,21.828,0,30.172c-8.328,8.312-21.812,8.312-30.156,0c-8.328-8.344-8.328-21.844,0-30.172
	C421.144,415.987,434.629,415.987,442.957,424.315z"/>
<path style="fill:#F6BB42;" d="M379.067,379.911c0,2.734-1.047,5.451-3.125,7.545c-4.171,4.156-10.921,4.156-15.076,0
	L210.08,236.664c-4.164-4.164-4.164-10.922,0-15.085c4.156-4.164,10.914-4.164,15.078,0l150.785,150.785
	C378.02,374.458,379.067,377.177,379.067,379.911z"/>
<path style="fill:#E6E9ED;" d="M119.45,93.793l1.18,10.593l-42.108,60.835c0.359,0.25,0.727,0.5,1.125,0.719l24.757,12.929
	c4.797,2.632,10.812,1.195,13.898-3.305l35.875-52.202c1.234-1.797,1.875-3.906,1.875-6.039c0-0.828-0.094-1.648-0.289-2.469
	c-0.703-2.938-2.609-5.438-5.257-6.883l-24.75-12.945C123.754,93.934,121.559,93.559,119.45,93.793z"/>
<polygon style="fill:#CCD1D9;" points="130.512,157.8 142.652,140.136 108.739,121.566 96.528,139.206 "/>
<g>
</g>
<g>
</g>
<g>
</g>
<g>
</g>
<g>
</g>
<g>
</g>
<g>
</g>
<g>
</g>
<g>
</g>
<g>
</g>
<g>
</g>
<g>
</g>
<g>
</g>
<g>
</g>
<g>
</g>
</svg>
