<?xml version="1.0" encoding="UTF-8" standalone="no"?>
<svg
   aria-hidden="true"
   focusable="false"
   data-prefix="fas"
   data-icon="trash"
   role="img"
   viewBox="0 0 512 512"
   class="svg-inline--fa fa-trash fa-w-14 fa-9x"
   version="1.1"
   id="svg4"
   sodipodi:docname="remove.svg"
   width="512"
   height="512"
   inkscape:version="1.1 (c4e8f9e, 2021-05-24)"
   xmlns:inkscape="http://www.inkscape.org/namespaces/inkscape"
   xmlns:sodipodi="http://sodipodi.sourceforge.net/DTD/sodipodi-0.dtd"
   xmlns="http://www.w3.org/2000/svg"
   xmlns:svg="http://www.w3.org/2000/svg">
  <defs
     id="defs8" />
  <sodipodi:namedview
     id="namedview6"
     pagecolor="#ffffff"
     bordercolor="#999999"
     borderopacity="1"
     inkscape:pageshadow="0"
     inkscape:pageopacity="0"
     inkscape:pagecheckerboard="0"
     showgrid="false"
     inkscape:zoom="1.4707031"
     inkscape:cx="223.70252"
     inkscape:cy="256"
     inkscape:current-layer="svg4" />
  <path
     fill="#c0c0c0"
     d="m 398.18745,88.883569 h -82.03122 l -6.42578,-12.783198 a 16.406244,16.406244 0 0 0 -14.69726,-9.091795 h -78.13474 a 16.214839,16.214839 0 0 0 -14.6289,9.091795 l -6.42578,12.783198 h -82.03123 a 10.937496,10.937496 0 0 0 -10.93749,10.937494 v 21.874997 a 10.937496,10.937496 0 0 0 10.93749,10.9375 h 284.37491 a 10.937496,10.937496 0 0 0 10.9375,-10.9375 V 99.821063 A 10.937496,10.937496 0 0 0 398.18745,88.883569 Z M 139.24223,386.24674 a 32.812489,32.812489 0 0 0 32.74413,30.76172 h 168.02728 a 32.812489,32.812489 0 0 0 32.74413,-30.76172 l 14.49218,-231.7382 h -262.4999 z"
     class=""
     id="path2"
     style="stroke-width:0.683594" />
</svg>
